<svg xmlns="http://www.w3.org/2000/svg" viewBox="0 0 220 140">
  <defs>
    <linearGradient id="fg" x1="0%" y1="0%" x2="100%" y2="100%">
      <stop offset="0%" stop-color="#0078d4"/>
      <stop offset="100%" stop-color="#003f6e"/>
    </linearGradient>
    <path id="cloud" d="M50 115C30 115 15 100 15 82C15 66 27 53 43 51C45 30 63 14 85 14C102 14 117 24 124 39C129 36 135 34 141 34C159 34 174 49 174 67C188 69 199 81 199 95C199 106 191 115 180 115Z"/>
  </defs>
  <use href="#cloud" x="10" y="5" fill="#185FA5"/>
  <use href="#cloud" x="0" y="0" fill="url(#fg)"/>
  <text x="100" y="82" font-family="Arial, sans-serif" font-size="52" font-weight="900" fill="#ffffff" text-anchor="middle" letter-spacing="-2">KA</text>
</svg>
